<?xml version="1.0" standalone="no"?>
<!DOCTYPE svg PUBLIC "-//W3C//DTD SVG 20010904//EN"
 "http://www.w3.org/TR/2001/REC-SVG-20010904/DTD/svg10.dtd">
<svg version="1.0" xmlns="http://www.w3.org/2000/svg"
 width="1562.000000pt" height="1562.000000pt" viewBox="0 0 1562.000000 1562.000000"
 preserveAspectRatio="xMidYMid meet">

<g transform="translate(0.000000,1562.000000) scale(0.100000,-0.100000)"
fill="#000000" stroke="none">
<path d="M2515 9455 c-93 -113 -171 -209 -173 -214 -2 -5 71 -54 162 -109
l166 -100 972 290 c535 159 980 291 988 294 10 4 6 10 -15 24 -29 19 -55 20
-980 20 l-950 0 -170 -205z"/>
<path d="M4610 9498 l-96 -30 -129 -239 c-120 -220 -132 -239 -160 -244 -16
-3 -304 -30 -640 -60 -335 -30 -616 -56 -624 -58 -16 -2 517 -327 537 -327 12
0 1125 318 1286 367 l60 18 114 189 c62 103 112 189 110 190 -25 21 -347 226
-354 225 -5 -1 -52 -15 -104 -31z"/>
<path d="M5167 9193 c-13 -21 -58 -96 -102 -167 l-78 -128 125 -422 c69 -231
201 -676 294 -988 l169 -566 20 31 c20 31 20 51 23 977 l3 945 -153 126 c-84
69 -181 150 -215 178 l-62 52 -24 -38z"/>
<path d="M2149 8943 c-63 -96 -113 -178 -113 -181 1 -4 16 -52 33 -107 l31
-100 240 -128 c132 -71 240 -134 240 -140 -1 -36 112 -1237 118 -1259 6 -25
23 -2 169 241 l163 270 -34 118 c-19 65 -105 363 -190 663 -86 300 -160 551
-164 558 -4 7 -91 64 -193 126 l-185 113 -115 -174z"/>
<path d="M6108 8694 c-5 -4 -8 -313 -8 -686 l0 -678 150 0 150 0 0 236 0 236
168 -4 c155 -3 170 -5 209 -27 70 -40 93 -85 140 -270 l41 -166 161 -3 c89 -1
161 1 161 6 0 5 -22 86 -50 180 -71 245 -101 299 -199 351 -33 17 -80 34 -106
38 -26 3 -49 12 -52 20 -7 19 -3 22 53 32 126 24 233 90 274 170 30 61 42 150
30 227 -21 128 -84 208 -215 270 -121 57 -181 65 -560 71 -187 3 -343 2 -347
-3z m697 -252 c63 -29 84 -48 106 -97 21 -45 25 -138 8 -182 -14 -38 -56 -81
-102 -104 -43 -23 -225 -42 -342 -37 l-70 3 -3 223 -2 224 177 -4 c159 -3 183
-6 228 -26z"/>
<path d="M12342 8603 c-19 -54 -123 -361 -233 -682 -109 -321 -199 -585 -199
-587 0 -2 71 -4 158 -4 l159 0 40 128 39 127 284 0 283 0 13 -40 c7 -22 25
-79 39 -127 l26 -88 160 0 c87 0 159 3 158 8 0 4 -105 311 -232 682 l-232 675
-215 3 -215 2 -33 -97z m268 -147 c0 -5 175 -584 190 -628 l9 -28 -219 0 -218
0 32 108 c156 513 169 552 187 552 11 0 19 -2 19 -4z"/>
<path d="M13407 8694 c-4 -4 -7 -313 -7 -686 l0 -678 150 0 150 0 -2 683 -3
682 -141 3 c-77 1 -143 -1 -147 -4z"/>
<path d="M1922 8656 l-22 -37 0 -942 0 -942 211 -175 c116 -96 214 -175 217
-175 3 0 50 74 105 165 l99 165 -228 765 c-125 421 -258 866 -294 989 l-67
223 -21 -36z"/>
<path d="M9840 8588 c-25 -157 -38 -170 -171 -176 l-89 -4 0 -114 0 -114 80 0
80 0 0 -293 c0 -329 6 -375 65 -464 65 -98 205 -140 385 -114 45 7 88 15 96
18 11 4 14 33 14 139 0 74 -1 134 -2 134 -2 0 -21 -7 -43 -15 -85 -30 -192 -8
-220 46 -12 22 -15 80 -15 289 l0 260 135 0 135 0 0 115 0 115 -135 0 -135 0
0 125 0 125 -84 0 -84 0 -12 -72z"/>
<path d="M4652 8341 l-163 -270 191 -663 c105 -365 194 -669 198 -677 7 -13
360 -230 375 -231 4 0 58 77 121 172 l112 172 -33 106 c-18 58 -36 106 -40
108 -11 3 -464 250 -469 254 -2 2 -28 283 -59 623 -31 341 -59 632 -63 648 -6
25 -22 2 -170 -242z"/>
<path d="M7763 8426 c-132 -32 -261 -135 -320 -256 -100 -204 -95 -479 12
-645 98 -153 249 -225 477 -225 127 0 191 12 275 51 100 48 189 156 209 255
l6 31 -114 22 c-62 12 -121 24 -130 27 -13 4 -18 0 -18 -13 0 -36 -57 -111
-102 -135 -62 -32 -184 -32 -250 1 -83 40 -133 116 -153 234 l-6 37 163 0 c90
0 261 3 381 7 l217 6 0 92 c0 262 -129 453 -345 510 -71 18 -228 19 -302 1z
m245 -232 c72 -30 131 -110 132 -180 0 -42 -12 -44 -272 -44 l-209 0 6 23 c28
93 78 162 145 198 44 23 146 25 198 3z"/>
<path d="M10757 8424 c-141 -34 -252 -119 -307 -236 -35 -73 -36 -85 -12 -92
107 -31 231 -66 235 -66 2 0 12 20 21 44 57 150 310 198 386 74 27 -45 27
-111 -2 -137 -30 -28 -61 -37 -239 -65 -232 -38 -336 -81 -399 -168 -41 -56
-53 -108 -48 -203 9 -177 119 -275 308 -275 90 0 152 17 224 63 51 33 123 120
152 187 11 24 25 40 35 40 19 0 24 -24 35 -172 l6 -88 131 0 130 0 -6 98 c-4
53 -9 214 -12 357 -4 143 -10 288 -16 323 -27 172 -133 286 -297 321 -72 15
-254 13 -325 -5z m353 -631 c0 -85 -24 -136 -94 -200 -114 -104 -259 -110
-323 -14 -26 39 -29 77 -9 124 23 56 77 79 271 117 61 12 117 26 125 31 27 15
30 10 30 -58z"/>
<path d="M8547 8293 c42 -65 120 -184 175 -265 54 -81 98 -151 98 -156 0 -5
-76 -123 -168 -263 -92 -140 -171 -260 -176 -266 -6 -10 29 -13 162 -13 l170
0 78 162 c44 89 88 181 99 203 36 72 44 65 153 -159 l101 -206 165 0 c92 0
166 2 166 5 0 3 -79 124 -176 270 l-176 265 168 256 c93 141 173 263 177 270
7 12 -21 14 -160 14 l-168 -1 -97 -199 c-76 -157 -101 -200 -116 -200 -15 0
-40 43 -117 200 l-99 200 -168 0 -167 0 76 -117z"/>
<path d="M3350 6881 c-355 -103 -652 -190 -660 -193 -15 -5 -246 -376 -239
-382 5 -4 321 -210 336 -219 7 -4 59 6 115 24 l103 31 130 239 c94 175 135
241 150 244 11 2 76 8 145 14 178 15 1112 101 1129 104 21 3 -520 327 -544
326 -11 0 -310 -85 -665 -188z"/>
<path d="M6407 6826 c-50 -18 -67 -34 -88 -81 -24 -51 -23 -89 1 -142 25 -57
69 -83 140 -83 97 0 160 60 160 153 0 79 -42 136 -115 156 -49 13 -51 13 -98
-3z m109 -42 c67 -32 86 -126 38 -183 -77 -91 -224 -31 -211 87 5 48 28 78 72
98 40 18 60 17 101 -2z"/>
<path d="M6856 6830 c-62 -19 -106 -83 -106 -155 0 -52 16 -89 54 -125 21 -19
40 -25 89 -28 72 -4 114 16 147 70 18 29 18 33 4 36 -9 2 -31 -12 -49 -32 -31
-35 -53 -42 -110 -38 -117 10 -130 199 -17 233 49 14 105 -2 129 -37 15 -23
53 -34 53 -14 0 25 -62 78 -104 89 -51 12 -50 12 -90 1z"/>
<path d="M9147 6826 c-51 -19 -67 -34 -90 -85 -48 -108 24 -221 141 -221 87 0
141 46 157 133 l7 37 -86 0 c-79 0 -86 -2 -86 -20 0 -18 7 -20 60 -20 65 0 72
-8 44 -49 -58 -82 -191 -48 -210 55 -15 80 68 158 145 135 20 -6 48 -22 61
-36 41 -43 68 -25 34 23 -33 48 -116 70 -177 48z"/>
<path d="M6000 6675 l0 -155 95 0 c88 0 95 1 95 20 0 18 -7 20 -75 20 l-75 0
0 135 c0 128 -1 135 -20 135 -19 0 -20 -7 -20 -155z"/>
<path d="M7260 6753 c-18 -43 -45 -109 -61 -147 -34 -81 -35 -86 -10 -86 13 0
23 11 31 35 l12 35 78 0 78 0 12 -35 c8 -24 18 -35 31 -35 10 0 19 3 19 7 0 4
-28 74 -61 155 -74 179 -82 184 -129 71z m82 -58 l26 -65 -59 0 -59 0 21 53
c12 28 23 58 26 65 10 23 20 12 45 -53z"/>
<path d="M7580 6675 l0 -155 95 0 c88 0 95 1 95 20 0 18 -7 20 -75 20 l-75 0
0 135 c0 128 -1 135 -20 135 -19 0 -20 -7 -20 -155z"/>
<path d="M7900 6675 c0 -148 1 -155 20 -155 19 0 20 7 20 155 0 148 -1 155
-20 155 -19 0 -20 -7 -20 -155z"/>
<path d="M8090 6810 c0 -18 7 -20 79 -20 l79 0 -79 -117 c-43 -64 -79 -125
-79 -135 0 -16 11 -18 110 -18 103 0 110 1 110 20 0 18 -7 20 -85 20 l-85 0
80 120 c44 66 80 126 80 135 0 12 -17 15 -105 15 -98 0 -105 -1 -105 -20z"/>
<path d="M8450 6675 c0 -148 1 -155 20 -155 19 0 20 7 20 155 0 148 -1 155
-20 155 -19 0 -20 -7 -20 -155z"/>
<path d="M8650 6676 c0 -149 1 -156 20 -156 19 0 20 7 20 122 l0 122 86 -122
c119 -169 124 -168 124 33 0 148 -1 155 -20 155 -19 0 -20 -7 -20 -121 l0
-122 -83 119 c-57 81 -91 120 -105 122 -22 3 -22 2 -22 -152z"/>
<path d="M9716 6688 c-32 -79 -60 -149 -63 -155 -3 -8 3 -13 15 -13 15 0 25
11 33 35 l13 35 76 0 76 0 17 -35 c11 -22 24 -35 36 -35 18 0 13 16 -43 153
-83 202 -84 202 -160 15z m108 13 c14 -36 26 -66 26 -68 0 -2 -25 -3 -55 -3
-30 0 -55 4 -55 9 0 5 7 26 16 47 9 22 20 50 25 63 12 29 11 30 43 -48z"/>
<path d="M10070 6675 c0 -131 2 -155 15 -155 13 0 15 24 15 155 0 131 -2 155
-15 155 -13 0 -15 -24 -15 -155z"/>
<path d="M3935 6306 c-500 -150 -943 -283 -984 -295 l-74 -23 29 -19 c28 -18
59 -19 979 -19 l950 0 170 205 c94 113 171 209 173 214 2 7 -323 214 -331 210
-1 0 -411 -123 -912 -273z"/>
</g>
</svg>
