<svg xmlns="http://www.w3.org/2000/svg" xmlns:xlink="http://www.w3.org/1999/xlink" width="500" zoomAndPan="magnify" viewBox="0 0 375 374.999991" height="500" preserveAspectRatio="xMidYMid meet" version="1.0"><defs><g/><clipPath id="12677c8273"><path d="M 68 216 L 125 216 L 125 232.179688 L 68 232.179688 Z M 68 216 " clip-rule="nonzero"/></clipPath><clipPath id="9ed6611744"><path d="M 45.605469 166 L 61 166 L 61 222 L 45.605469 222 Z M 45.605469 166 " clip-rule="nonzero"/></clipPath><clipPath id="e56a579064"><path d="M 55 142.929688 L 112 142.929688 L 112 159 L 55 159 Z M 55 142.929688 " clip-rule="nonzero"/></clipPath><clipPath id="1a2baded3c"><path d="M 119 153 L 134.855469 153 L 134.855469 209 L 119 209 Z M 119 153 " clip-rule="nonzero"/></clipPath></defs><rect x="-37.5" width="450" fill="#ffffff" y="-37.499999" height="449.999989" fill-opacity="1"/><rect x="-37.5" width="450" fill="#ffffff" y="-37.499999" height="449.999989" fill-opacity="1"/><g clip-path="url(#12677c8273)"><path fill="#8a3aff" d="M 124.5625 221.867188 L 116.425781 216.945312 L 68.855469 231.113281 L 70.46875 232.144531 L 115.972656 232.1875 Z M 124.5625 221.867188 " fill-opacity="1" fill-rule="nonzero"/></g><path fill="#8a3aff" d="M 109.992188 213.070312 L 96.632812 205.007812 L 64.195312 214.351562 L 58.675781 223.5 L 67.152344 229.058594 L 72.164062 227.523438 L 78.429688 215.980469 Z M 109.992188 213.070312 " fill-opacity="1" fill-rule="nonzero"/><g clip-path="url(#9ed6611744)"><path fill="#8a3aff" d="M 55.921875 221.882812 L 60.84375 213.75 L 46.675781 166.179688 L 45.648438 167.792969 L 45.605469 213.296875 Z M 55.921875 221.882812 " fill-opacity="1" fill-rule="nonzero"/></g><path fill="#8a3aff" d="M 64.722656 207.316406 L 72.78125 193.957031 L 63.441406 161.519531 L 54.292969 156 L 48.734375 164.476562 L 50.269531 169.488281 L 61.808594 175.753906 Z M 64.722656 207.316406 " fill-opacity="1" fill-rule="nonzero"/><g clip-path="url(#e56a579064)"><path fill="#8a3aff" d="M 55.90625 153.246094 L 64.039062 158.167969 L 111.609375 144 L 110 142.972656 L 64.496094 142.929688 Z M 55.90625 153.246094 " fill-opacity="1" fill-rule="nonzero"/></g><path fill="#8a3aff" d="M 70.476562 162.042969 L 83.835938 170.105469 L 116.269531 160.765625 L 121.792969 151.613281 L 113.316406 146.058594 L 108.300781 147.59375 L 102.039062 159.132812 Z M 70.476562 162.042969 " fill-opacity="1" fill-rule="nonzero"/><g clip-path="url(#1a2baded3c)"><path fill="#8a3aff" d="M 124.542969 153.230469 L 119.621094 161.363281 L 133.789062 208.933594 L 134.820312 207.324219 L 134.863281 161.820312 Z M 124.542969 153.230469 " fill-opacity="1" fill-rule="nonzero"/></g><path fill="#8a3aff" d="M 115.746094 167.800781 L 107.683594 181.160156 L 117.023438 213.59375 L 126.175781 219.117188 L 131.734375 210.640625 L 130.199219 205.625 L 118.65625 199.359375 Z M 115.746094 167.800781 " fill-opacity="1" fill-rule="nonzero"/><g fill="#8a3aff" fill-opacity="1"><g transform="translate(142.891313, 199.132837)"><g><path d="M 3.546875 0 L 3.546875 -33 L 16.953125 -33 C 18.546875 -33 20.039062 -32.875 21.4375 -32.625 C 22.84375 -32.375 24.117188 -32 25.265625 -31.5 C 26.421875 -31 27.421875 -30.363281 28.265625 -29.59375 C 29.117188 -28.832031 29.757812 -27.925781 30.1875 -26.875 C 30.625 -25.820312 30.84375 -24.628906 30.84375 -23.296875 C 30.84375 -22.128906 30.664062 -21.078125 30.3125 -20.140625 C 29.96875 -19.210938 29.425781 -18.390625 28.6875 -17.671875 C 27.957031 -16.953125 27.035156 -16.367188 25.921875 -15.921875 C 24.804688 -15.472656 23.515625 -15.164062 22.046875 -15 L 22.046875 -14.296875 C 23.742188 -14.097656 25.109375 -13.695312 26.140625 -13.09375 C 27.179688 -12.5 27.992188 -11.679688 28.578125 -10.640625 C 29.160156 -9.609375 29.664062 -8.328125 30.09375 -6.796875 L 32.046875 0 L 24.09375 0 L 22.59375 -6.25 C 22.300781 -7.582031 21.867188 -8.628906 21.296875 -9.390625 C 20.734375 -10.160156 20.023438 -10.695312 19.171875 -11 C 18.328125 -11.300781 17.300781 -11.453125 16.09375 -11.453125 L 10.75 -11.453125 L 10.75 0 Z M 10.75 -16.90625 L 15.40625 -16.90625 C 15.96875 -16.90625 16.597656 -16.921875 17.296875 -16.953125 C 17.992188 -16.984375 18.703125 -17.082031 19.421875 -17.25 C 20.140625 -17.414062 20.789062 -17.679688 21.375 -18.046875 C 21.957031 -18.410156 22.441406 -18.925781 22.828125 -19.59375 C 23.210938 -20.257812 23.40625 -21.113281 23.40625 -22.15625 C 23.40625 -23.21875 23.21875 -24.082031 22.84375 -24.75 C 22.476562 -25.414062 22.007812 -25.929688 21.4375 -26.296875 C 20.875 -26.660156 20.273438 -26.925781 19.640625 -27.09375 C 19.015625 -27.257812 18.414062 -27.359375 17.84375 -27.390625 C 17.28125 -27.429688 16.832031 -27.453125 16.5 -27.453125 L 10.75 -27.453125 Z M 10.75 -16.90625 "/></g></g></g><g fill="#8a3aff" fill-opacity="1"><g transform="translate(175.036105, 199.132837)"><g><path d="M 15.40625 0.703125 C 13.238281 0.703125 11.3125 0.40625 9.625 -0.1875 C 7.9375 -0.789062 6.507812 -1.664062 5.34375 -2.8125 C 4.175781 -3.96875 3.289062 -5.367188 2.6875 -7.015625 C 2.09375 -8.671875 1.796875 -10.550781 1.796875 -12.65625 C 1.796875 -14.71875 2.085938 -16.625 2.671875 -18.375 C 3.253906 -20.125 4.101562 -21.640625 5.21875 -22.921875 C 6.34375 -24.203125 7.71875 -25.191406 9.34375 -25.890625 C 10.976562 -26.597656 12.832031 -26.953125 14.90625 -26.953125 C 16.9375 -26.953125 18.722656 -26.617188 20.265625 -25.953125 C 21.816406 -25.285156 23.109375 -24.300781 24.140625 -23 C 25.179688 -21.695312 25.941406 -20.113281 26.421875 -18.25 C 26.910156 -16.382812 27.070312 -14.234375 26.90625 -11.796875 L 6.453125 -11.65625 L 6.453125 -15.59375 L 22.65625 -15.75 L 20.25 -13.703125 C 20.476562 -15.460938 20.367188 -16.910156 19.921875 -18.046875 C 19.472656 -19.179688 18.804688 -20.015625 17.921875 -20.546875 C 17.035156 -21.078125 16.046875 -21.34375 14.953125 -21.34375 C 13.679688 -21.34375 12.570312 -21.007812 11.625 -20.34375 C 10.675781 -19.675781 9.941406 -18.703125 9.421875 -17.421875 C 8.910156 -16.140625 8.65625 -14.597656 8.65625 -12.796875 C 8.65625 -9.960938 9.269531 -7.882812 10.5 -6.5625 C 11.726562 -5.25 13.363281 -4.59375 15.40625 -4.59375 C 16.332031 -4.59375 17.117188 -4.71875 17.765625 -4.96875 C 18.421875 -5.21875 18.957031 -5.539062 19.375 -5.9375 C 19.789062 -6.34375 20.113281 -6.796875 20.34375 -7.296875 C 20.582031 -7.796875 20.769531 -8.3125 20.90625 -8.84375 L 27.203125 -7.546875 C 26.960938 -6.316406 26.550781 -5.203125 25.96875 -4.203125 C 25.382812 -3.203125 24.617188 -2.332031 23.671875 -1.59375 C 22.722656 -0.863281 21.566406 -0.300781 20.203125 0.09375 C 18.835938 0.5 17.238281 0.703125 15.40625 0.703125 Z M 15.40625 0.703125 "/></g></g></g><g fill="#8a3aff" fill-opacity="1"><g transform="translate(202.381635, 199.132837)"><g><path d="M 0.65625 0 L 9.34375 -13.15625 L 0.703125 -26.25 L 8.953125 -26.25 L 13.75 -16.453125 L 14.546875 -16.453125 L 19.296875 -26.25 L 27.546875 -26.25 L 18.90625 -13.15625 L 27.65625 0 L 19.40625 0 L 14.546875 -9.84375 L 13.75 -9.84375 L 9 0 Z M 0.65625 0 "/></g></g></g><g fill="#8a3aff" fill-opacity="1"><g transform="translate(229.177253, 199.132837)"><g><path d="M 13 0.59375 C 11.5625 0.59375 10.3125 0.410156 9.25 0.046875 C 8.1875 -0.316406 7.296875 -0.890625 6.578125 -1.671875 C 5.859375 -2.453125 5.316406 -3.457031 4.953125 -4.6875 C 4.585938 -5.925781 4.40625 -7.394531 4.40625 -9.09375 L 4.40625 -20.59375 L 0.65625 -20.59375 L 0.796875 -26.15625 L 3.203125 -26.15625 C 4.296875 -26.1875 5.109375 -26.375 5.640625 -26.71875 C 6.179688 -27.070312 6.5 -27.695312 6.59375 -28.59375 L 7.203125 -32.09375 L 11.296875 -32.09375 L 11.296875 -26.25 L 17.90625 -26.25 L 17.90625 -20.40625 L 11.296875 -20.40625 L 11.296875 -9.453125 C 11.296875 -8.085938 11.628906 -7.171875 12.296875 -6.703125 C 12.960938 -6.234375 13.78125 -6 14.75 -6 C 15.351562 -6 15.953125 -6.070312 16.546875 -6.21875 C 17.148438 -6.375 17.664062 -6.582031 18.09375 -6.84375 L 18.09375 -0.15625 C 17.0625 0.144531 16.113281 0.34375 15.25 0.4375 C 14.382812 0.539062 13.632812 0.59375 13 0.59375 Z M 13 0.59375 "/></g></g></g><g fill="#8a3aff" fill-opacity="1"><g transform="translate(247.374205, 199.132837)"><g><path d="M 9.40625 0.703125 C 7.9375 0.703125 6.632812 0.421875 5.5 -0.140625 C 4.363281 -0.710938 3.46875 -1.539062 2.8125 -2.625 C 2.164062 -3.707031 1.84375 -5.03125 1.84375 -6.59375 C 1.84375 -8.425781 2.25 -9.875 3.0625 -10.9375 C 3.882812 -12.007812 4.9375 -12.828125 6.21875 -13.390625 C 7.507812 -13.960938 8.867188 -14.375 10.296875 -14.625 C 11.734375 -14.875 13.066406 -15.082031 14.296875 -15.25 C 15.429688 -15.414062 16.347656 -15.585938 17.046875 -15.765625 C 17.742188 -15.953125 18.25 -16.21875 18.5625 -16.5625 C 18.882812 -16.914062 19.046875 -17.394531 19.046875 -18 C 19.046875 -18.664062 18.894531 -19.25 18.59375 -19.75 C 18.300781 -20.25 17.851562 -20.65625 17.25 -20.96875 C 16.644531 -21.289062 15.863281 -21.453125 14.90625 -21.453125 C 13.96875 -21.453125 13.082031 -21.285156 12.25 -20.953125 C 11.414062 -20.617188 10.707031 -20.109375 10.125 -19.421875 C 9.539062 -18.742188 9.148438 -17.882812 8.953125 -16.84375 L 2.546875 -18.65625 C 2.910156 -20.082031 3.46875 -21.3125 4.21875 -22.34375 C 4.96875 -23.382812 5.875 -24.242188 6.9375 -24.921875 C 8.007812 -25.609375 9.210938 -26.117188 10.546875 -26.453125 C 11.878906 -26.785156 13.332031 -26.953125 14.90625 -26.953125 C 16.9375 -26.953125 18.664062 -26.703125 20.09375 -26.203125 C 21.53125 -25.703125 22.691406 -24.941406 23.578125 -23.921875 C 24.460938 -22.910156 25.113281 -21.675781 25.53125 -20.21875 C 25.945312 -18.769531 26.15625 -17.113281 26.15625 -15.25 L 26.15625 -10.75 C 26.15625 -9.613281 26.171875 -8.4375 26.203125 -7.21875 C 26.234375 -6.007812 26.289062 -4.800781 26.375 -3.59375 C 26.457031 -2.394531 26.550781 -1.195312 26.65625 0 L 20.296875 0 C 20.203125 -0.894531 20.09375 -1.882812 19.96875 -2.96875 C 19.851562 -4.050781 19.78125 -5.160156 19.75 -6.296875 L 18.90625 -6.296875 C 18.4375 -5.035156 17.765625 -3.863281 16.890625 -2.78125 C 16.023438 -1.695312 14.957031 -0.84375 13.6875 -0.21875 C 12.425781 0.394531 11 0.703125 9.40625 0.703125 Z M 12.453125 -4.546875 C 13.085938 -4.546875 13.726562 -4.65625 14.375 -4.875 C 15.019531 -5.09375 15.648438 -5.414062 16.265625 -5.84375 C 16.890625 -6.28125 17.457031 -6.832031 17.96875 -7.5 C 18.488281 -8.164062 18.898438 -8.914062 19.203125 -9.75 L 19.09375 -13.703125 L 20.25 -13.5 C 19.6875 -13.0625 19.007812 -12.71875 18.21875 -12.46875 C 17.4375 -12.21875 16.617188 -12.023438 15.765625 -11.890625 C 14.921875 -11.765625 14.082031 -11.617188 13.25 -11.453125 C 12.414062 -11.285156 11.664062 -11.066406 11 -10.796875 C 10.332031 -10.535156 9.796875 -10.171875 9.390625 -9.703125 C 8.992188 -9.234375 8.796875 -8.597656 8.796875 -7.796875 C 8.796875 -6.796875 9.132812 -6.003906 9.8125 -5.421875 C 10.5 -4.835938 11.378906 -4.546875 12.453125 -4.546875 Z M 12.453125 -4.546875 "/></g></g></g><g fill="#8a3aff" fill-opacity="1"><g transform="translate(274.919709, 199.132837)"><g/></g></g><g fill="#8a3aff" fill-opacity="1"><g transform="translate(284.817943, 199.132837)"><g><path d="M 0.84375 0 L 12.09375 -33 L 22.546875 -33 L 33.84375 0 L 26 0 L 17.703125 -27.296875 L 17 -27.296875 L 8.65625 0 Z M 7.15625 -6.453125 L 7.15625 -11.40625 L 28.546875 -11.40625 L 28.546875 -6.453125 Z M 7.15625 -6.453125 "/></g></g></g><g fill="#8a3aff" fill-opacity="1"><g transform="translate(318.012571, 199.132837)"><g><path d="M 3.546875 0 L 3.546875 -33 L 10.84375 -33 L 10.84375 0 Z M 3.546875 0 "/></g></g></g><g fill="#000000" fill-opacity="1"><g transform="translate(142.891313, 218.375584)"><g><path d="M 1.078125 0 L 1.078125 -7.421875 L 2.015625 -7.421875 L 2.015625 -0.890625 L 5.625 -0.890625 L 5.625 0 Z M 1.078125 0 "/></g></g></g><g fill="#000000" fill-opacity="1"><g transform="translate(150.625649, 218.375584)"><g><path d="M 4.453125 0.140625 C 3.703125 0.140625 3.035156 -0.0195312 2.453125 -0.34375 C 1.878906 -0.675781 1.425781 -1.132812 1.09375 -1.71875 C 0.769531 -2.300781 0.609375 -2.96875 0.609375 -3.71875 C 0.609375 -4.46875 0.769531 -5.128906 1.09375 -5.703125 C 1.425781 -6.285156 1.878906 -6.738281 2.453125 -7.0625 C 3.035156 -7.394531 3.703125 -7.5625 4.453125 -7.5625 C 5.210938 -7.5625 5.878906 -7.394531 6.453125 -7.0625 C 7.035156 -6.738281 7.488281 -6.285156 7.8125 -5.703125 C 8.144531 -5.128906 8.3125 -4.46875 8.3125 -3.71875 C 8.3125 -2.96875 8.144531 -2.300781 7.8125 -1.71875 C 7.488281 -1.132812 7.035156 -0.675781 6.453125 -0.34375 C 5.878906 -0.0195312 5.210938 0.140625 4.453125 0.140625 Z M 1.5625 -3.71875 C 1.5625 -3.144531 1.679688 -2.632812 1.921875 -2.1875 C 2.171875 -1.75 2.515625 -1.40625 2.953125 -1.15625 C 3.390625 -0.914062 3.890625 -0.796875 4.453125 -0.796875 C 5.023438 -0.796875 5.523438 -0.914062 5.953125 -1.15625 C 6.390625 -1.40625 6.726562 -1.75 6.96875 -2.1875 C 7.21875 -2.632812 7.34375 -3.144531 7.34375 -3.71875 C 7.34375 -4.289062 7.21875 -4.796875 6.96875 -5.234375 C 6.726562 -5.671875 6.390625 -6.007812 5.953125 -6.25 C 5.523438 -6.5 5.023438 -6.625 4.453125 -6.625 C 3.890625 -6.625 3.390625 -6.5 2.953125 -6.25 C 2.515625 -6.007812 2.171875 -5.671875 1.921875 -5.234375 C 1.679688 -4.796875 1.5625 -4.289062 1.5625 -3.71875 Z M 1.5625 -3.71875 "/></g></g></g><g fill="#000000" fill-opacity="1"><g transform="translate(161.319006, 218.375584)"><g><path d="M 4.375 0.140625 C 3.820312 0.140625 3.316406 0.046875 2.859375 -0.140625 C 2.398438 -0.335938 2.003906 -0.609375 1.671875 -0.953125 C 1.335938 -1.296875 1.078125 -1.703125 0.890625 -2.171875 C 0.703125 -2.640625 0.609375 -3.15625 0.609375 -3.71875 C 0.609375 -4.269531 0.703125 -4.78125 0.890625 -5.25 C 1.078125 -5.726562 1.335938 -6.132812 1.671875 -6.46875 C 2.003906 -6.8125 2.398438 -7.078125 2.859375 -7.265625 C 3.316406 -7.460938 3.820312 -7.5625 4.375 -7.5625 C 4.957031 -7.5625 5.492188 -7.453125 5.984375 -7.234375 C 6.472656 -7.023438 6.894531 -6.71875 7.25 -6.3125 C 7.601562 -5.914062 7.859375 -5.445312 8.015625 -4.90625 L 7.015625 -4.90625 C 6.828125 -5.4375 6.5 -5.851562 6.03125 -6.15625 C 5.5625 -6.46875 5.019531 -6.625 4.40625 -6.625 C 3.851562 -6.625 3.363281 -6.5 2.9375 -6.25 C 2.507812 -6.007812 2.171875 -5.671875 1.921875 -5.234375 C 1.679688 -4.796875 1.5625 -4.289062 1.5625 -3.71875 C 1.5625 -3.144531 1.679688 -2.632812 1.921875 -2.1875 C 2.171875 -1.75 2.507812 -1.40625 2.9375 -1.15625 C 3.363281 -0.914062 3.851562 -0.796875 4.40625 -0.796875 C 5.03125 -0.796875 5.585938 -0.957031 6.078125 -1.28125 C 6.566406 -1.601562 6.90625 -2.046875 7.09375 -2.609375 L 8.078125 -2.609375 C 7.929688 -2.054688 7.679688 -1.570312 7.328125 -1.15625 C 6.972656 -0.75 6.539062 -0.429688 6.03125 -0.203125 C 5.519531 0.0234375 4.96875 0.140625 4.375 0.140625 Z M 4.375 0.140625 "/></g></g></g><g fill="#000000" fill-opacity="1"><g transform="translate(171.757817, 218.375584)"><g><path d="M 0.1875 0 L 3.234375 -7.421875 L 4.109375 -7.421875 L 7.15625 0 L 6.171875 0 L 5.46875 -1.6875 L 1.859375 -1.6875 L 1.171875 0 Z M 2.21875 -2.5625 L 5.125 -2.5625 L 3.671875 -6.125 Z M 2.21875 -2.5625 "/></g></g></g><g fill="#000000" fill-opacity="1"><g transform="translate(180.881516, 218.375584)"><g><path d="M 1.078125 0 L 1.078125 -7.421875 L 2.015625 -7.421875 L 2.015625 -0.890625 L 5.625 -0.890625 L 5.625 0 Z M 1.078125 0 "/></g></g></g><g fill="#000000" fill-opacity="1"><g transform="translate(188.615854, 218.375584)"><g><path d="M 1.078125 0 L 1.078125 -7.421875 L 2.015625 -7.421875 L 2.015625 0 Z M 1.078125 0 "/></g></g></g><g fill="#000000" fill-opacity="1"><g transform="translate(193.497237, 218.375584)"><g><path d="M 0.5625 0 L 0.5625 -0.6875 L 4.515625 -6.53125 L 0.671875 -6.53125 L 0.671875 -7.421875 L 5.75 -7.421875 L 5.75 -6.734375 L 1.796875 -0.890625 L 5.859375 -0.890625 L 5.859375 0 Z M 0.5625 0 "/></g></g></g><g fill="#000000" fill-opacity="1"><g transform="translate(201.687634, 218.375584)"><g><path d="M 1.078125 0 L 1.078125 -7.421875 L 2.015625 -7.421875 L 2.015625 0 Z M 1.078125 0 "/></g></g></g><g fill="#000000" fill-opacity="1"><g transform="translate(206.569017, 218.375584)"><g><path d="M 1.078125 0 L 1.078125 -7.421875 L 1.96875 -7.421875 L 6.0625 -1.609375 L 6.0625 -7.421875 L 6.984375 -7.421875 L 6.984375 0 L 6.109375 0 L 2 -5.8125 L 2 0 Z M 1.078125 0 "/></g></g></g><g fill="#000000" fill-opacity="1"><g transform="translate(216.413909, 218.375584)"><g><path d="M 4.390625 0.140625 C 3.847656 0.140625 3.347656 0.046875 2.890625 -0.140625 C 2.429688 -0.335938 2.03125 -0.609375 1.6875 -0.953125 C 1.34375 -1.296875 1.078125 -1.703125 0.890625 -2.171875 C 0.703125 -2.640625 0.609375 -3.15625 0.609375 -3.71875 C 0.609375 -4.269531 0.703125 -4.78125 0.890625 -5.25 C 1.078125 -5.71875 1.335938 -6.125 1.671875 -6.46875 C 2.015625 -6.8125 2.410156 -7.078125 2.859375 -7.265625 C 3.316406 -7.460938 3.820312 -7.5625 4.375 -7.5625 C 4.9375 -7.5625 5.457031 -7.457031 5.9375 -7.25 C 6.414062 -7.050781 6.832031 -6.765625 7.1875 -6.390625 C 7.539062 -6.023438 7.796875 -5.597656 7.953125 -5.109375 L 6.921875 -5.109375 C 6.691406 -5.585938 6.359375 -5.957031 5.921875 -6.21875 C 5.484375 -6.488281 4.976562 -6.625 4.40625 -6.625 C 3.851562 -6.625 3.363281 -6.5 2.9375 -6.25 C 2.507812 -6.007812 2.171875 -5.671875 1.921875 -5.234375 C 1.679688 -4.796875 1.5625 -4.289062 1.5625 -3.71875 C 1.5625 -3.144531 1.679688 -2.632812 1.921875 -2.1875 C 2.171875 -1.75 2.507812 -1.40625 2.9375 -1.15625 C 3.375 -0.914062 3.863281 -0.796875 4.40625 -0.796875 C 4.914062 -0.796875 5.363281 -0.894531 5.75 -1.09375 C 6.132812 -1.289062 6.445312 -1.5625 6.6875 -1.90625 C 6.9375 -2.257812 7.09375 -2.671875 7.15625 -3.140625 L 4.140625 -3.140625 L 4.140625 -4.03125 L 8.171875 -4.03125 C 8.179688 -3.21875 8.03125 -2.5 7.71875 -1.875 C 7.40625 -1.25 6.960938 -0.753906 6.390625 -0.390625 C 5.816406 -0.0351562 5.148438 0.140625 4.390625 0.140625 Z M 4.390625 0.140625 "/></g></g></g><g fill="#000000" fill-opacity="1"><g transform="translate(226.948175, 218.375584)"><g/></g></g><g fill="#000000" fill-opacity="1"><g transform="translate(231.362907, 218.375584)"><g><path d="M 0.1875 0 L 3.234375 -7.421875 L 4.109375 -7.421875 L 7.15625 0 L 6.171875 0 L 5.46875 -1.6875 L 1.859375 -1.6875 L 1.171875 0 Z M 2.21875 -2.5625 L 5.125 -2.5625 L 3.671875 -6.125 Z M 2.21875 -2.5625 "/></g></g></g><g fill="#000000" fill-opacity="1"><g transform="translate(240.486605, 218.375584)"><g><path d="M 1.078125 0 L 1.078125 -7.421875 L 2.015625 -7.421875 L 2.015625 0 Z M 1.078125 0 "/></g></g></g></svg>